<svg width="20" height="20" viewBox="0 0 20 20" fill="none" xmlns="http://www.w3.org/2000/svg">
<path d="M7.95844 12.625L15.0209 5.5625C15.1876 5.39583 15.3821 5.3125 15.6043 5.3125C15.8265 5.3125 16.0209 5.39583 16.1876 5.5625C16.3543 5.72917 16.4376 5.92722 16.4376 6.15667C16.4376 6.38611 16.3543 6.58389 16.1876 6.75L8.54178 14.4167C8.37511 14.5833 8.18067 14.6667 7.95844 14.6667C7.73622 14.6667 7.54178 14.5833 7.37511 14.4167L3.79178 10.8333C3.62511 10.6667 3.54511 10.4689 3.55178 10.24C3.55844 10.0111 3.64539 9.81306 3.81261 9.64583C3.97983 9.47861 4.17789 9.39528 4.40678 9.39583C4.63567 9.39639 4.83344 9.47972 5.00011 9.64583L7.95844 12.625Z" fill="#4E2EA8"/>
</svg>
